<?xml version="1.0" encoding="UTF-8" standalone="no"?>
<svg
   xmlns:dc="http://purl.org/dc/elements/1.1/"
   xmlns:cc="http://creativecommons.org/ns#"
   xmlns:rdf="http://www.w3.org/1999/02/22-rdf-syntax-ns#"
   xmlns:svg="http://www.w3.org/2000/svg"
   xmlns="http://www.w3.org/2000/svg"
   xmlns:sodipodi="http://sodipodi.sourceforge.net/DTD/sodipodi-0.dtd"
   xmlns:inkscape="http://www.inkscape.org/namespaces/inkscape"
   inkscape:version="1.0 (4035a4fb49, 2020-05-01)"
   sodipodi:docname="iconmonstr-steam-4.svg"
   id="svg4"
   version="1.1"
   viewBox="0 0 24 24"
   height="24"
   width="24">
  <metadata
     id="metadata10">
    <rdf:RDF>
      <cc:Work
         rdf:about="">
        <dc:format>image/svg+xml</dc:format>
        <dc:type
           rdf:resource="http://purl.org/dc/dcmitype/StillImage" />
      </cc:Work>
    </rdf:RDF>
  </metadata>
  <defs
     id="defs8" />
  <sodipodi:namedview
     inkscape:current-layer="layer1"
     inkscape:window-maximized="1"
     inkscape:window-y="-9"
     inkscape:window-x="-9"
     inkscape:cy="11.589999"
     inkscape:cx="7.8812352"
     inkscape:zoom="35.083333"
     showgrid="false"
     id="namedview6"
     inkscape:window-height="1013"
     inkscape:window-width="1920"
     inkscape:pageshadow="2"
     inkscape:pageopacity="0"
     guidetolerance="10"
     gridtolerance="10"
     objecttolerance="10"
     borderopacity="1"
     bordercolor="#666666"
     pagecolor="#ffffff" />
  <g
     style="display:inline"
     inkscape:label="Layer 2"
     id="layer2"
     inkscape:groupmode="layer">
    <rect
       transform="scale(-1,1)"
       y="0.028503567"
       x="-24.08551"
       height="24"
       width="24.08551"
       id="rect18"
       style="fill:#000000;stroke-width:7.81553" />
    <rect
       y="4.7315912"
       x="18.95487"
       height="4.7030878"
       width="0.14251782"
       id="rect25"
       style="fill:#000000" />
  </g>
  <g
     style="display:inline"
     inkscape:label="Layer 1"
     id="layer1"
     inkscape:groupmode="layer">
    <path
       id="path2"
       d="M24 12c0 6.627-5.373 12-12 12-5.782 0-10.608-4.091-11.744-9.537l4.764 2.003c.285 1.441 1.56 2.547 3.115 2.534 1.723-.017 3.105-1.414 3.116-3.129l.007-.003 3.602-2.684c2.304.024 4.14-1.833 4.14-4.091 0-2.26-1.834-4.093-4.093-4.093-2.234 0-4.048 1.791-4.09 4.015l-2.64 3.693c-.668-.014-1.269.169-1.791.51l-6.294-2.646c.708-5.953 5.765-10.572 11.908-10.572 6.627 0 12 5.373 12 12zm-16.577 5.477l-1.544-.649c.38.858 1.236 1.461 2.249 1.457 1.346-.012 2.422-1.11 2.41-2.455-.012-1.329-1.104-2.41-2.432-2.41-.287.001-.57.05-.86.16l1.542.648c.898.378 1.319 1.411.941 2.308-.376.896-1.409 1.318-2.306.941zm7.484-5.602c-1.533 0-2.781-1.249-2.781-2.782 0-1.534 1.248-2.782 2.781-2.782 1.534 0 2.781 1.248 2.781 2.782 0 1.533-1.247 2.782-2.781 2.782zm0-.682c1.159 0 2.1-.942 2.1-2.101 0-1.158-.94-2.102-2.1-2.102s-2.102.943-2.102 2.102c.001 1.159.943 2.101 2.102 2.101z" />
    <path
       id="path12"
       d="M 11.102138,23.954171 C 9.3078832,23.805891 7.618395,23.290205 6.0855107,22.422934 5.6856333,22.196693 4.9009345,21.661982 4.5035629,21.34496 4.0208394,20.959844 3.0654177,20.007232 2.690992,19.53772 1.7462688,18.353081 1.0670752,17.108678 0.61467378,15.733538 0.48588353,15.342061 0.26935854,14.526803 0.28916768,14.507946 c 0.005566,-0.0053 1.06667722,0.434974 2.35802532,0.978383 l 2.3479056,0.988018 0.076614,0.258552 c 0.2945951,0.994179 1.0449158,1.782284 2.0093968,2.110588 0.6804696,0.231628 1.5020888,0.215122 2.170511,-0.0436 0.8683776,-0.336125 1.5933946,-1.108008 1.8625386,-1.982937 0.07383,-0.239998 0.144748,-0.63327 0.144748,-0.80266 v -0.124043 l 1.10045,-0.819966 c 0.605247,-0.450982 1.415223,-1.055165 1.799948,-1.342628 l 0.699499,-0.522662 0.35403,-0.02509 c 1.85112,-0.131184 3.363452,-1.479168 3.733336,-3.3276265 0.06934,-0.3465298 0.06914,-1.17662 -3.62e-4,-1.524144 -0.33055,-1.6526998 -1.566297,-2.9058156 -3.216518,-3.2617268 -0.33984,-0.073295 -1.303873,-0.073065 -1.64853,3.933e-4 -1.257175,0.2679472 -2.313608,1.0899387 -2.864436,2.2287649 -0.2216,0.4581546 -0.327243,0.8389707 -0.39533,1.4250601 L 10.78457,9.0341572 9.4756045,10.86161 8.1666388,12.689062 7.881419,12.705758 c -0.394153,0.02307 -0.7907387,0.130733 -1.1751204,0.31901 -0.175906,0.08616 -0.3298253,0.156648 -0.3420427,0.156636 -0.012217,-1.2e-5 -1.4203129,-0.588175 -3.1291015,-1.30703 L 0.12826603,10.567366 0.135466,10.42784 C 0.1473055,10.198405 0.2510499,9.6345788 0.37354794,9.1339194 0.73498817,7.6566841 1.411032,6.1985598 2.2988919,4.981243 3.0820931,3.9074206 4.0842428,2.9208239 5.1566828,2.1678039 7.7975946,0.31347188 11.139094,-0.38800941 14.32304,0.24350938 c 1.88889,0.37465114 3.650078,1.19470772 5.173397,2.40887302 0.482533,0.3846044 1.437421,1.3365325 1.812571,1.8069527 1.546355,1.9390572 2.412148,4.0882153 2.633242,6.5364959 0.0439,0.486077 0.03727,1.611295 -0.01253,2.129468 -0.312168,3.247739 -1.894361,6.174928 -4.447532,8.228306 -1.759747,1.415271 -3.874186,2.292822 -6.171021,2.561147 -0.45714,0.05341 -1.758739,0.07663 -2.209026,0.03942 z"
       style="fill:#ffffff;stroke-width:0.0285036" />
    <path
       id="path14"
       d="M 7.8532248,18.251145 C 7.2798273,18.193019 6.7689211,17.934412 6.354601,17.49258 6.1499066,17.274294 5.9039775,16.909395 5.9509924,16.893723 c 0.012591,-0.0042 0.3301933,0.122094 0.7057836,0.280646 0.921861,0.389156 1.0319218,0.425663 1.3384734,0.443963 0.8310106,0.04961 1.5602109,-0.457463 1.8101672,-1.258759 0.081398,-0.260942 0.089111,-0.719578 0.01627,-0.967525 C 9.7263891,15.067655 9.6046486,14.862209 9.3634204,14.61869 9.2380048,14.492083 9.0761008,14.356014 9.0036339,14.316314 8.931167,14.276614 8.5239225,14.098436 8.0986459,13.920363 7.6733693,13.74229 7.3254157,13.587936 7.3254157,13.577353 c 0,-0.01058 0.092993,-0.04307 0.2066508,-0.07219 0.2795797,-0.07164 0.8960329,-0.07121 1.1615202,8.13e-4 0.8335519,0.226122 1.5053723,0.888008 1.7453793,1.719571 0.08408,0.291316 0.09138,0.919458 0.01397,1.201838 -0.122824,0.448044 -0.283048,0.73766 -0.5890135,1.064683 -0.5323733,0.569013 -1.2421925,0.836983 -2.0107017,0.759079 z"
       style="fill:#ffffff;stroke-width:0.0285036" />
    <path
       id="path16"
       d="M 14.572438,11.84166 C 13.829533,11.737609 13.149499,11.3431 12.705552,10.758623 12.52286,10.518099 12.304839,10.066849 12.223551,9.7609978 c -0.09311,-0.3503327 -0.09275,-0.9919453 7.59e-4,-1.3396675 0.132549,-0.4929177 0.382415,-0.9249995 0.742645,-1.2842237 0.58765,-0.5860101 1.397208,-0.8777779 2.203953,-0.7943131 0.652175,0.067473 1.209344,0.3316906 1.677168,0.7953369 0.36472,0.3614627 0.620238,0.8077048 0.744927,1.3009579 0.09102,0.3600602 0.09005,0.9737869 -0.0021,1.3219095 -0.216281,0.8171442 -0.802038,1.5121892 -1.566557,1.8588392 -0.408985,0.185442 -1.032033,0.280631 -1.451916,0.221823 z m 0.901525,-0.713445 c 0.914482,-0.253416 1.542664,-1.082916 1.542664,-2.0370509 0,-0.960548 -0.638839,-1.795488 -1.563303,-2.0431828 -0.312509,-0.083731 -0.794994,-0.083392 -1.096345,7.711e-4 -0.694305,0.1939098 -1.223523,0.6953026 -1.463793,1.3868297 -0.07298,0.2100436 -0.07923,0.2617502 -0.07923,0.655582 0,0.3938317 0.0062,0.4455383 0.07923,0.6555819 0.377525,1.086564 1.492063,1.683167 2.580777,1.381469 z"
       style="fill:#ffffff;stroke-width:0.0285036" />
  </g>
</svg>
