<svg xmlns="http://www.w3.org/2000/svg" width="88.532" height="53.268" viewBox="0 0 88.532 53.268"><g transform="translate(0 0)"><path d="M353.857,336.011c-.006.369-.013.737.005,1.112-.049-.154-.089-.322-.129-.49l-.054-.224a.011.011,0,0,0,.009-.014l0-.011A3.624,3.624,0,0,1,353.857,336.011Z" transform="translate(-343.769 -313.596)" fill="#fff"/><path d="M353.857,336.011c-.006.369-.013.737.005,1.112-.049-.154-.089-.322-.129-.49l-.054-.224a.011.011,0,0,0,.009-.014l0-.011A3.624,3.624,0,0,1,353.857,336.011Z" transform="translate(-343.769 -313.596)" fill="#fff"/><path d="M545.4,221.873A24.248,24.248,0,0,1,527.459,251.1c-.19.046-.37.088-.552.12a19.78,19.78,0,0,0,8.319-18.251,21.99,21.99,0,0,0-5.934-28.521,24.2,24.2,0,0,1,16.108,17.43Z" transform="translate(-487.483 -204.443)" fill="#fff"/><path d="M353.857,336.011c-.006.369-.013.737.005,1.112-.049-.154-.089-.322-.129-.49l-.054-.224a.011.011,0,0,0,.009-.014l0-.011A3.624,3.624,0,0,1,353.857,336.011Z" transform="translate(-343.769 -313.596)" fill="#fff"/><path d="M387.708,219.346a18.348,18.348,0,0,1,.066,8.346,16.577,16.577,0,0,1-.784,2.615l0,.011a17.8,17.8,0,0,1-2.153,4.021,15.513,15.513,0,0,0-3.052-14.394l-.014-.009a15.517,15.517,0,0,0-22.483-1.255l-.011,0a15.53,15.53,0,0,0-4.449,14.921,14.783,14.783,0,0,0,.734,2.276,18.443,18.443,0,0,1-3.923-7.388,4.027,4.027,0,0,1-.177-.739,18.512,18.512,0,0,1,2.287-13.812,19.259,19.259,0,0,1,2.008-2.7l.011,0a18.5,18.5,0,0,1,9.507-5.661,17.016,17.016,0,0,1,2.53-.416l.022-.005a18.613,18.613,0,0,1,19.879,14.183Z" transform="translate(-341.547 -204.966)" fill="#fff"/><path d="M414.964,281.292a7.382,7.382,0,0,0-3,9.97,2.678,2.678,0,0,0,.193.322,4.28,4.28,0,0,1-.568-.435.775.775,0,0,1-.18-.147,3.781,3.781,0,0,1-.411-.387,4.275,4.275,0,0,1-.409-.44c-.058-.07-.108-.125-.154-.191a7.347,7.347,0,0,1-.77-1.168,7.773,7.773,0,1,1,13.691-7.363,7.182,7.182,0,0,1,.444.978,3.276,3.276,0,0,1,.167.5,7.191,7.191,0,0,0-3.4-2.2A7.342,7.342,0,0,0,414.964,281.292Z" transform="translate(-389.439 -264.93)" fill="#fff"/><path d="M340.507,285.93a22.767,22.767,0,0,1-11.217,15l-.011,0a22.439,22.439,0,0,1-5.7,2.216,22.17,22.17,0,0,1-3.26.531,22.766,22.766,0,0,1-16.855-39.968,21.944,21.944,0,0,0,.709,16.779,21.044,21.044,0,0,0,2.972,4.7l0,.011a22.021,22.021,0,0,0,25.238,6.435l.022-.005A21.735,21.735,0,0,0,340.507,285.93Z" transform="translate(-295.504 -253.615)" fill="#fff"/><path d="M414.861,297.877a12.406,12.406,0,1,1-24.131,5.772,12.218,12.218,0,0,1,.143-6.287,10.412,10.412,0,0,0,.29,2.252,10.753,10.753,0,0,0,20.915-5,10.533,10.533,0,0,0-1.573-3.556A12.312,12.312,0,0,1,414.861,297.877Z" transform="translate(-374.222 -276.299)" fill="#fff"/><g transform="translate(37.741 35.429)"><path d="M555.088,415.637c-5.564-.554-8.25-3.251-13.936-3.242a12.234,12.234,0,0,0-3.491.371,22.459,22.459,0,0,1-4.966,6.315,10.517,10.517,0,0,1,1.987-.265,16.926,16.926,0,0,1,2.357.064c.809.067,1.624.189,2.446.327s1.638.305,2.452.466l2.4.494c.786.151,1.555.3,2.3.414s1.459.2,2.143.264c.68.044,1.328.083,1.927.068s1.15-.054,1.641-.113l.689-.1.586-.115c.359-.066.632-.154.827-.2l.3-.071-.24.19a6.557,6.557,0,0,1-.713.5l-.54.321c-.2.111-.429.2-.671.317a9.839,9.839,0,0,1-1.7.575,13.432,13.432,0,0,1-2.1.356,18.3,18.3,0,0,1-2.355.035,32.469,32.469,0,0,1-4.96-.684c-1.641-.341-3.24-.736-4.721-1.032a20.23,20.23,0,0,0-4.024-.479c-.292.009-.575.019-.839.051a5.074,5.074,0,0,0-.758.1,3.238,3.238,0,0,0-.429.095c-4.157,2.949-7.578,4.831-13.676,4.493a7.6,7.6,0,0,0,2.77,1.85A59.61,59.61,0,0,0,536,430.142c12.154.925,26.15-5.214,31.813-16.6C564.517,415.515,559.537,416.871,555.088,415.637Z" transform="translate(-517.025 -412.395)" fill="#fff"/></g><g transform="translate(58.991 14.758)"><path d="M665.968,291.067c-1.192,9.207-8.406,16.139-16.778,19.807-1.232-.61-6.4-.737-7.433-.328a17.608,17.608,0,0,0,2.067-5.055c1.065-.132,2.2-.242,3.345-.391a27.386,27.386,0,0,0,4.169-.829,15.67,15.67,0,0,0,1.877-.679,11.361,11.361,0,0,0,1.583-.869,8.24,8.24,0,0,0,1.2-.927c.161-.161.317-.3.449-.443s.236-.282.346-.409a6.287,6.287,0,0,0,.432-.6c.086-.144.138-.219.138-.219s-.081.046-.219.138-.34.236-.61.392c-.132.075-.276.161-.438.253s-.34.173-.524.271c-.38.184-.812.368-1.284.547s-1.008.323-1.566.478c-.564.138-1.163.276-1.791.386s-1.29.207-1.958.305-1.37.179-2.061.271-1.4.184-2.1.305c-.23.04-.461.081-.691.127a23.859,23.859,0,0,0,.167-2.816,22.979,22.979,0,0,0-.213-3.167c.058-.023.121-.046.184-.069,4.554-1.589,7.456-.167,12.074-1.272A14.557,14.557,0,0,0,665.968,291.067Z" transform="translate(-641.756 -291.067)" fill="#fff"/></g></g></svg>