<?xml version="1.0" encoding="utf-8"?>
<!-- Generator: Adobe Illustrator 17.0.0, SVG Export Plug-In . SVG Version: 6.00 Build 0)  -->
<!DOCTYPE svg PUBLIC "-//W3C//DTD SVG 1.1//EN" "http://www.w3.org/Graphics/SVG/1.1/DTD/svg11.dtd">
<svg version="1.1" id="Capa_1" xmlns="http://www.w3.org/2000/svg" xmlns:xlink="http://www.w3.org/1999/xlink" x="0px" y="0px"
	  viewBox="0 0 1080 1080" enable-background="new 0 0 1080 1080" xml:space="preserve">
<rect fill="#1D1D1B" width="1080" height="1077.724"/>
<g>
	<g>
		<g>
			<path fill="#FFFFFF" d="M288.104,559.047h30.707l11.048,58.56l16.174-58.56h30.6l16.21,58.488l11.072-58.488h30.54
				l-23.06,104.608h-31.694l-18.35-65.862l-18.279,65.862h-31.694L288.104,559.047z"/>
			<path fill="#FFFFFF" d="M445.159,559.047h32.324v36.606h35.321v-36.606h32.467v104.608h-32.467V621.34h-35.321v42.314h-32.324
				V559.047z"/>
			<path fill="#FFFFFF" d="M568.034,559.047h32.396v104.608h-32.396V559.047z"/>
			<path fill="#FFFFFF" d="M616.271,559.047h98.257v25.831h-32.967v78.777h-32.324v-78.777h-32.966V559.047z"/>
			<path fill="#FFFFFF" d="M729.085,559.047h86.626v22.334h-54.231v16.626h50.306v21.335h-50.306v20.622h55.8v23.69h-88.196V559.047
				z"/>
		</g>
		<g>
			<path fill="#FFFFFF" d="M290.783,818.238V688.254h66.942c12.413,0,21.9,1.064,28.462,3.192
				c6.561,2.128,11.852,6.074,15.871,11.837c4.02,5.763,6.029,12.783,6.029,21.058c0,7.211-1.537,13.433-4.611,18.664
				c-3.074,5.231-7.315,9.472-12.694,12.724c-3.428,2.069-8.128,3.783-14.098,5.143c4.773,1.596,8.261,3.192,10.448,4.788
				c1.478,1.064,3.621,3.34,6.428,6.842c2.808,3.487,4.684,6.177,5.63,8.069l19.447,37.668h-45.382l-21.472-39.722
				c-2.719-5.143-5.143-8.482-7.271-10.019c-2.896-2.01-6.177-3.015-9.842-3.015h-3.547v52.756H290.783z M331.126,740.921h16.935
				c1.832,0,5.379-0.591,10.64-1.773c2.66-0.532,4.832-1.892,6.517-4.079s2.527-4.699,2.527-7.537c0-4.197-1.33-7.418-3.99-9.665
				s-7.655-3.369-14.984-3.369h-17.644V740.921z"/>
			<path fill="#FFFFFF" d="M423.338,753.335c0-21.221,5.911-37.742,17.733-49.564c11.822-11.822,28.284-17.733,49.387-17.733
				c21.634,0,38.303,5.808,50.007,17.423s17.556,27.885,17.556,48.81c0,15.191-2.557,27.649-7.67,37.372
				s-12.502,17.29-22.166,22.698c-9.665,5.409-21.708,8.113-36.131,8.113c-14.659,0-26.792-2.335-36.397-7.005
				c-9.605-4.67-17.393-12.059-23.363-22.166C426.323,781.176,423.338,768.526,423.338,753.335z M463.504,753.512
				c0,13.122,2.438,22.551,7.315,28.284c4.877,5.734,11.512,8.601,19.905,8.601c8.63,0,15.31-2.808,20.038-8.423
				s7.093-15.694,7.093-30.235c0-12.236-2.468-21.176-7.404-26.821c-4.936-5.645-11.63-8.468-20.083-8.468
				c-8.098,0-14.6,2.867-19.506,8.601S463.504,740.271,463.504,753.512z"/>
			<path fill="#FFFFFF" d="M572.651,775.235l38.215-2.394c0.828,6.207,2.512,10.935,5.054,14.187
				c4.138,5.261,10.049,7.891,17.733,7.891c5.734,0,10.152-1.345,13.255-4.034c3.103-2.69,4.655-5.808,4.655-9.354
				c0-3.369-1.478-6.384-4.433-9.044c-2.956-2.66-9.812-5.172-20.57-7.537c-17.615-3.96-30.176-9.221-37.683-15.782
				c-7.566-6.561-11.349-14.925-11.349-25.092c0-6.68,1.936-12.99,5.808-18.93c3.872-5.941,9.694-10.61,17.467-14.009
				c7.773-3.399,18.428-5.098,31.964-5.098c16.61,0,29.274,3.089,37.993,9.266c8.719,6.177,13.906,16.004,15.561,29.481
				l-37.86,2.217c-1.005-5.852-3.118-10.108-6.34-12.768c-3.221-2.66-7.67-3.99-13.344-3.99c-4.67,0-8.187,0.99-10.551,2.97
				c-2.364,1.98-3.547,4.389-3.547,7.226c0,2.069,0.975,3.931,2.926,5.586c1.892,1.714,6.384,3.31,13.477,4.788
				c17.556,3.783,30.132,7.61,37.727,11.482c7.596,3.872,13.122,8.674,16.58,14.408s5.187,12.147,5.187,19.24
				c0,8.335-2.305,16.019-6.916,23.053c-4.611,7.034-11.054,12.369-19.329,16.004c-8.275,3.635-18.708,5.453-31.299,5.453
				c-22.107,0-37.417-4.256-45.929-12.768S573.774,788.357,572.651,775.235z"/>
			<path fill="#FFFFFF" d="M710.703,688.254h107.64v27.752h-67.386v20.659h62.509v26.511h-62.509v25.624h69.336v29.437H710.703
				V688.254z"/>
		</g>
	</g>
	<g>
		<path fill="#FFFFFF" d="M307.582,853.088h-4.469v-1.008c0-1.024-0.24-1.907-0.722-2.652c-0.482-0.745-1.294-1.116-2.433-1.116
			c-0.613,0-1.116,0.118-1.51,0.35c-0.394,0.233-0.701,0.533-0.92,0.897c-0.219,0.367-0.371,0.789-0.459,1.27
			c-0.088,0.482-0.131,0.987-0.131,1.513c0,0.613,0.021,1.132,0.065,1.554c0.044,0.424,0.154,0.789,0.33,1.095
			c0.175,0.307,0.429,0.576,0.766,0.809c0.337,0.235,0.795,0.468,1.379,0.701l3.417,1.358c0.994,0.38,1.796,0.825,2.409,1.337
			c0.613,0.51,1.088,1.109,1.425,1.796c0.334,0.685,0.56,1.473,0.678,2.363c0.115,0.892,0.175,1.907,0.175,3.046
			c0,1.314-0.131,2.534-0.394,3.657c-0.263,1.125-0.694,2.089-1.291,2.891c-0.599,0.802-1.395,1.439-2.389,1.905
			c-0.991,0.468-2.204,0.701-3.636,0.701c-1.079,0-2.087-0.189-3.021-0.57c-0.936-0.378-1.739-0.897-2.409-1.554
			c-0.673-0.657-1.206-1.439-1.6-2.343c-0.394-0.906-0.59-1.884-0.59-2.935v-1.665h4.469v1.402c0,0.816,0.24,1.554,0.722,2.211
			c0.482,0.657,1.294,0.987,2.43,0.987c0.761,0,1.351-0.111,1.775-0.33c0.422-0.219,0.745-0.526,0.964-0.92
			c0.219-0.394,0.357-0.883,0.415-1.466c0.06-0.586,0.088-1.227,0.088-1.928c0-0.818-0.028-1.49-0.088-2.015
			c-0.058-0.526-0.182-0.95-0.371-1.27c-0.191-0.32-0.454-0.583-0.789-0.789c-0.337-0.203-0.782-0.422-1.337-0.657l-3.196-1.314
			c-1.928-0.789-3.221-1.831-3.878-3.131c-0.657-1.3-0.985-2.928-0.985-4.884c0-1.169,0.159-2.278,0.482-3.329
			c0.32-1.051,0.795-1.958,1.423-2.716c0.627-0.759,1.425-1.365,2.389-1.817c0.964-0.454,2.087-0.68,3.371-0.68
			c1.111,0,2.126,0.205,3.046,0.613c0.92,0.41,1.709,0.95,2.366,1.621c0.657,0.673,1.16,1.423,1.51,2.255
			c0.35,0.832,0.526,1.688,0.526,2.564V853.088z"/>
		<path fill="#FFFFFF" d="M401.45,848.313h-5.169v-4.206h14.805v4.206h-5.169v26.982h-4.466V848.313z"/>
		<path fill="#FFFFFF" d="M515.118,868.287c0,1.021-0.191,1.971-0.569,2.848c-0.38,0.874-0.897,1.642-1.554,2.299
			c-0.657,0.657-1.425,1.176-2.301,1.554c-0.876,0.38-1.81,0.57-2.804,0.57c-0.991,0-1.925-0.189-2.801-0.57
			c-0.876-0.378-1.644-0.897-2.301-1.554c-0.657-0.657-1.176-1.425-1.554-2.299c-0.38-0.876-0.57-1.826-0.57-2.848v-24.18h4.469
			v23.742c0,1.109,0.263,1.928,0.789,2.453c0.526,0.526,1.181,0.789,1.969,0.789c0.789,0,1.446-0.263,1.971-0.789
			c0.526-0.526,0.789-1.344,0.789-2.453v-23.742h4.468V868.287z"/>
		<path fill="#FFFFFF" d="M606.928,844.107h6.613c2.541,0,4.482,0.708,5.827,2.126c1.344,1.416,2.015,3.394,2.015,5.935v14.586
			c0,2.919-0.708,5.073-2.124,6.461c-1.418,1.388-3.454,2.08-6.112,2.08h-6.219V844.107z M611.396,871.091h2.057
			c1.257,0,2.147-0.314,2.672-0.943c0.526-0.627,0.789-1.614,0.789-2.956v-15.024c0-1.227-0.247-2.177-0.745-2.848
			c-0.496-0.671-1.402-1.008-2.716-1.008h-2.057V871.091z"/>
		<path fill="#FFFFFF" d="M713.326,844.107h4.469v31.187h-4.469V844.107z"/>
		<path fill="#FFFFFF" d="M809.473,851.467c0-1.257,0.219-2.366,0.657-3.33c0.438-0.964,1.015-1.759,1.729-2.386
			c0.715-0.629,1.519-1.102,2.409-1.425c0.89-0.32,1.789-0.482,2.693-0.482c0.906,0,1.803,0.161,2.695,0.482
			c0.89,0.323,1.692,0.795,2.409,1.425c0.715,0.627,1.291,1.423,1.729,2.386c0.438,0.964,0.657,2.073,0.657,3.33v16.47
			c0,1.284-0.219,2.403-0.657,3.35c-0.438,0.95-1.015,1.739-1.729,2.366c-0.717,0.627-1.519,1.102-2.409,1.423
			c-0.892,0.32-1.789,0.482-2.695,0.482c-0.904,0-1.803-0.161-2.693-0.482s-1.695-0.795-2.409-1.423s-1.291-1.416-1.729-2.366
			c-0.438-0.948-0.657-2.066-0.657-3.35V851.467z M813.941,867.937c0,1.079,0.297,1.877,0.897,2.386
			c0.597,0.512,1.307,0.768,2.124,0.768c0.818,0,1.526-0.256,2.126-0.768c0.597-0.51,0.897-1.307,0.897-2.386v-16.47
			c0-1.081-0.3-1.877-0.897-2.389c-0.599-0.51-1.307-0.766-2.126-0.766c-0.816,0-1.526,0.256-2.124,0.766
			c-0.599,0.512-0.897,1.307-0.897,2.389V867.937z"/>
	</g>
	<g>
		<g>
			<path fill="#FFFFFF" d="M354.721,336.011c-0.037,2.164-0.076,4.328,0.032,6.527c-0.286-0.905-0.522-1.891-0.758-2.878
				l-0.315-1.315c0.066-0.016,0.05-0.082,0.05-0.082l-0.016-0.066C354.019,337.431,354.338,336.729,354.721,336.011z"/>
			<path fill="#FFFFFF" d="M354.721,336.011c-0.037,2.164-0.076,4.328,0.032,6.527c-0.286-0.905-0.522-1.891-0.758-2.878
				l-0.315-1.315c0.066-0.016,0.05-0.082,0.05-0.082l-0.016-0.066C354.019,337.431,354.338,336.729,354.721,336.011z"/>
			<path fill="#FFFFFF" d="M635.453,306.751c18.276,76.408-28.836,153.23-105.308,171.521c-1.117,0.267-2.17,0.519-3.238,0.705
				c33.926-23.825,53.364-64.624,48.829-107.126c15.662-27.521,21.381-60.867,13.439-94.073
				c-7.298-30.51-24.912-55.911-48.267-73.335c10.771,3.472,21.005,8.184,30.62,14.088
				C602.574,237.591,626.316,268.547,635.453,306.751z"/>
			<path fill="#FFFFFF" d="M354.721,336.011c-0.037,2.164-0.076,4.328,0.032,6.527c-0.286-0.905-0.522-1.891-0.758-2.878
				l-0.315-1.315c0.066-0.016,0.05-0.082,0.05-0.082l-0.016-0.066C354.019,337.431,354.338,336.729,354.721,336.011z"/>
			<path fill="#FFFFFF" d="M566.45,288.845c3.979,16.636,3.939,33.329,0.385,48.987c-1.102,5.269-2.664,10.369-4.6,15.351
				l0.016,0.066c-3.202,8.412-7.43,16.306-12.638,23.599c4.331-14.731,5.035-30.679,1.197-46.723
				c-3.444-14.4-10.118-27.194-19.112-37.764l-0.082-0.05c-21.502-25.375-56.139-37.945-90.66-29.688
				c-16.11,3.853-30.144,11.729-41.306,22.323l-0.066,0.016c-22.967,21.691-33.977,54.703-26.113,87.581
				c1.101,4.603,2.529,9.128,4.307,13.36c-10.552-12.144-18.65-26.822-23.024-43.363c-0.624-2.32-0.938-3.043-1.038-4.34
				c-6.544-28.814-0.936-57.684,13.421-81.069c3.453-5.623,7.41-10.879,11.788-15.819l0.066-0.016
				c14.266-15.925,33.377-27.865,55.8-33.228c4.932-1.18,9.942-2.03,14.849-2.439l0.13-0.031
				c24.246-2.393,47.833,3.505,67.552,15.611C541.18,235.8,559.436,259.518,566.45,288.845z"/>
			<path fill="#FFFFFF" d="M445.324,300.482c-9.72,5.286-17.431,14.197-20.868,25.631c-3.458,11.506-1.938,23.191,3.278,32.89
				c0.348,0.646,0.696,1.293,1.135,1.89c-1.171-0.739-2.3-1.62-3.336-2.551c-0.405-0.199-0.697-0.519-1.059-0.86
				c-0.865-0.725-1.662-1.429-2.413-2.274c-0.846-0.796-1.668-1.663-2.401-2.58c-0.339-0.412-0.631-0.732-0.901-1.123
				c-1.754-2.153-3.23-4.455-4.522-6.857c-5.584-10.274-7.196-22.684-3.567-34.758c3.629-12.073,11.817-21.538,22.14-27.03
				c10.275-5.584,22.685-7.197,34.758-3.568c12.073,3.629,21.537,11.817,27.031,22.141c0.993,1.847,1.894,3.744,2.609,5.741
				c0.405,0.973,0.739,1.926,0.979,2.927c-5.103-5.948-11.949-10.483-19.973-12.895C466.78,293.768,455.023,295.267,445.324,300.482
				z"/>
			<path fill="#FFFFFF" d="M559.652,394.12c-8.233,37.075-32.047,69.466-65.837,88.045c0,0,0,0-0.066,0.016
				c-10.307,5.732-21.487,10.144-33.455,13.007c-6.378,1.526-12.8,2.575-19.135,3.117c-29.382,2.717-57.939-4.494-81.896-19.202
				c-29.17-17.91-51.471-46.917-60.058-82.819c-8.587-35.902-1.825-71.861,16.084-101.032c7.254-11.815,16.317-22.464,26.938-31.539
				c-8.469,23.02-10.402,48.647-4.3,74.16c2.045,8.548,4.882,16.629,8.46,24.323c4.635,10.083,10.527,19.311,17.444,27.597
				l0.016,0.066c11.806,14.486,26.694,26.149,43.354,34.191c25.896,12.645,56.192,16.661,86.44,9.426
				c6.312-1.51,12.514-3.48,18.343-5.847c0.066-0.016,0.066-0.016,0.132-0.031C530.69,420.095,546.83,408.518,559.652,394.12z"/>
			<path fill="#FFFFFF" d="M534.038,331.099c9.358,39.124-14.756,78.399-53.88,87.757s-78.399-14.755-87.757-53.88
				c-3.02-12.625-2.563-25.247,0.837-36.905c0.069,4.363,0.648,8.813,1.702,13.218c8.1,33.864,42.159,54.775,76.022,46.676
				c33.931-8.116,54.842-42.175,46.742-76.039c-1.84-7.693-4.982-14.728-9.233-20.871
				C520.819,300.824,530.091,314.595,534.038,331.099z"/>
		</g>
		<g>
			<path fill="#FFFFFF" d="M740.437,431.425c-32.66-3.252-48.427-19.082-81.799-19.03c-10.652,0.126-10.585,0.142-20.49,2.18
				c-7.04,13.411-16.839,26.118-29.151,37.067c3.603-0.818,7.54-1.425,11.661-1.557c4.457-0.231,9.099-0.044,13.832,0.376
				c4.748,0.393,9.532,1.108,14.355,1.919c4.814,0.801,9.617,1.792,14.392,2.737c4.719,0.971,9.438,1.941,14.084,2.897
				c4.616,0.884,9.126,1.775,13.488,2.427c4.367,0.725,8.566,1.165,12.577,1.55c3.992,0.26,7.797,0.487,11.309,0.4
				c3.509-0.1,6.751-0.317,9.632-0.665c1.445-0.207,2.797-0.401,4.047-0.58c1.251-0.246,2.4-0.471,3.438-0.675
				c2.107-0.386,3.709-0.904,4.853-1.161c1.145-0.273,1.757-0.418,1.757-0.418s-0.49,0.387-1.408,1.113
				c-0.961,0.648-2.256,1.896-4.184,2.955c-0.957,0.569-2.017,1.199-3.172,1.886c-1.178,0.651-2.52,1.193-3.937,1.862
				c-2.856,1.251-6.199,2.488-9.961,3.372c-3.75,0.977-7.894,1.669-12.306,2.09c-4.394,0.308-9.069,0.483-13.821,0.203
				c-9.552-0.407-19.464-2.069-29.114-4.017c-9.633-2.001-19.018-4.319-27.713-6.06c-8.696-1.759-16.728-2.864-23.619-2.811
				c-1.714,0.052-3.376,0.11-4.927,0.301c-1.588,0.088-3.064,0.32-4.448,0.608c-0.902,0.123-1.721,0.336-2.517,0.555
				c-24.398,17.307-44.477,28.355-80.27,26.372c4.589,5.564,11.107,8.386,16.258,10.858c28.892,10.517,64.441,16.673,95.14,18.384
				c71.336,5.427,153.491-30.604,186.727-97.408C795.784,430.707,766.55,438.669,740.437,431.425z"/>
		</g>
		<g>
			<path fill="#FFFFFF" d="M783.868,291.067c-6.995,54.04-49.342,94.73-98.481,116.258c-7.233-3.582-37.548-4.326-43.631-1.926
				c5.509-10.848,9.632-17.371,12.133-29.673c6.253-0.777,12.91-1.419,19.636-2.298c8.28-1.115,16.695-2.535,24.468-4.867
				c3.886-1.082,7.57-2.535,11.018-3.988c3.413-1.554,6.556-3.278,9.294-5.103c2.771-1.724,5.103-3.65,7.064-5.441
				c0.946-0.946,1.858-1.757,2.635-2.602c0.71-0.879,1.386-1.656,2.028-2.399c1.251-1.386,1.927-2.737,2.535-3.515
				c0.507-0.845,0.811-1.284,0.811-1.284s-0.473,0.27-1.284,0.811c-0.845,0.541-1.994,1.386-3.583,2.298
				c-0.777,0.439-1.622,0.946-2.569,1.487c-0.946,0.473-1.994,1.014-3.076,1.588c-2.23,1.082-4.765,2.163-7.536,3.211
				c-2.805,1.048-5.914,1.893-9.192,2.805c-3.312,0.811-6.826,1.622-10.51,2.264c-3.684,0.676-7.57,1.217-11.491,1.791
				c-3.988,0.507-8.043,1.048-12.098,1.588c-4.09,0.574-8.212,1.081-12.302,1.791c-1.352,0.236-2.704,0.473-4.055,0.743
				c0.642-5.407,0.98-10.916,0.98-16.526c0-6.32-0.406-12.505-1.251-18.588c0.338-0.135,0.71-0.27,1.082-0.406
				c26.732-9.328,43.766-0.98,70.87-7.469C750.309,320.2,771.567,305.701,783.868,291.067z"/>
		</g>
	</g>
</g>
</svg>
