<?xml version="1.0" encoding="UTF-8" standalone="no"?>
<svg
   xmlns:dc="http://purl.org/dc/elements/1.1/"
   xmlns:cc="http://creativecommons.org/ns#"
   xmlns:rdf="http://www.w3.org/1999/02/22-rdf-syntax-ns#"
   xmlns:svg="http://www.w3.org/2000/svg"
   xmlns="http://www.w3.org/2000/svg"
   xmlns:sodipodi="http://sodipodi.sourceforge.net/DTD/sodipodi-0.dtd"
   xmlns:inkscape="http://www.inkscape.org/namespaces/inkscape"
   height="482.97925pt"
   width="482.87949pt"
   viewBox="0 0 35.641758 27.503172"
   version="1.1"
   id="svg69"
   inkscape:version="1.0 (4035a4fb49, 2020-05-01)"
   sodipodi:docname="ps4.svg">
  <defs
     id="defs63" />
  <sodipodi:namedview
     inkscape:pagecheckerboard="true"
     id="base"
     pagecolor="#ffffff"
     bordercolor="#666666"
     borderopacity="1.0"
     inkscape:pageopacity="0.0"
     inkscape:pageshadow="2"
     inkscape:zoom="0.74208053"
     inkscape:cx="392.77632"
     inkscape:cy="556.09148"
     inkscape:document-units="mm"
     inkscape:current-layer="g40"
     inkscape:document-rotation="0"
     showgrid="false"
     inkscape:window-width="1339"
     inkscape:window-height="1033"
     inkscape:window-x="224"
     inkscape:window-y="0"
     inkscape:window-maximized="0"
     fit-margin-top="0"
     fit-margin-left="0"
     fit-margin-right="0"
     fit-margin-bottom="0" />
  <metadata
     id="metadata66">
    <rdf:RDF>
      <cc:Work
         rdf:about="">
        <dc:format>image/svg+xml</dc:format>
        <dc:type
           rdf:resource="http://purl.org/dc/dcmitype/StillImage" />
        <dc:title></dc:title>
      </cc:Work>
    </rdf:RDF>
  </metadata>
  <g
     inkscape:label="Capa 1"
     inkscape:groupmode="layer"
     id="layer1"
     transform="translate(-1.0779326,-1.3674617)">
    <g
       id="g40"
       transform="matrix(0.26458333,0,0,0.26458333,1.078119,1.3674617)">
      <path
         style="fill:#ffffff"
         id="path28"
         d="m 50.372,0 c 5.858,1.092 11.616,2.652 17.346,4.278 3.278,0.952 6.547,1.937 9.795,2.986 5.102,1.625 10.182,3.465 14.803,6.209 2.07,1.257 4.058,2.677 5.757,4.409 1.841,1.799 3.348,3.933 4.454,6.255 2.015,4.208 2.705,8.909 2.909,13.531 0.096,3.016 0.09,6.058 -0.473,9.035 -0.468,2.587 -1.3,5.138 -2.684,7.385 -1.222,1.985 -2.921,3.701 -4.983,4.807 -1.978,1.066 -4.243,1.574 -6.486,1.529 -3.402,0.036 -6.703,-1.049 -9.756,-2.47 -0.055,-10.153 -0.008,-20.308 -0.024,-30.46 -0.022,-1.837 0.103,-3.693 -0.267,-5.505 -0.26,-1.404 -0.833,-2.819 -1.935,-3.772 -0.731,-0.659 -1.678,-1.031 -2.63,-1.232 -0.963,-0.183 -1.99,0.226 -2.586,0.999 -0.991,1.238 -1.251,2.882 -1.296,4.423 -0.008,27.181 0.01,54.363 -0.008,81.542 C 64.996,101.632 57.683,99.313 50.373,96.989 50.365,64.659 50.368,32.33 50.372,0 Z" />
      <path
         style="fill:#ffffff"
         id="path30"
         d="m 17.506,68.783 c 9.533,-3.375 19.056,-6.782 28.593,-10.146 0.015,3.743 0,7.487 0.006,11.233 -0.006,0.508 0.027,1.018 -0.037,1.523 -7.538,2.672 -15.061,5.391 -22.592,8.08 -1.044,0.394 -2.115,0.841 -2.92,1.638 -0.375,0.374 -0.68,0.926 -0.475,1.462 0.258,0.631 0.902,0.974 1.496,1.234 1.652,0.672 3.458,0.767 5.218,0.848 1.962,-0.031 3.932,-0.178 5.854,-0.602 1.299,-0.255 2.549,-0.693 3.787,-1.158 3.218,-1.165 6.436,-2.337 9.659,-3.49 0.024,3.166 0.004,6.334 0.01,9.503 -0.01,0.633 0.029,1.27 -0.034,1.901 -3.958,0.711 -7.963,1.194 -11.986,1.257 C 25.984,92.249 17.864,90.995 10.169,88.463 7.645,87.732 5.137,86.759 3.03,85.156 1.87,84.258 0.832,83.129 0.304,81.74 c -0.442,-1.176 -0.41,-2.535 0.141,-3.67 0.531,-1.132 1.459,-2.027 2.481,-2.722 2.365,-1.633 4.973,-2.878 7.616,-3.989 2.277,-0.972 4.639,-1.728 6.964,-2.576 z" />
      <path
         style="fill:#ffffff"
         id="path32"
         d="m 94.209,64.52 c 2.162,-0.25 4.338,-0.309 6.511,-0.387 7.151,0.027 14.338,0.917 21.178,3.062 1.342,0.408 2.642,0.936 3.979,1.362 2.383,0.871 4.769,1.927 6.677,3.64 1.147,1.046 2.135,2.455 2.149,4.064 0.068,1.309 -0.525,2.565 -1.374,3.531 -1.616,1.812 -3.752,3.057 -5.897,4.143 -2.283,1.164 -4.737,1.915 -7.131,2.801 -14.612,5.247 -29.225,10.492 -43.835,15.745 -0.002,-4.093 0.004,-8.185 -0.002,-12.276 0.022,-0.163 -0.068,-0.448 0.163,-0.491 11.118,-3.956 22.233,-7.923 33.349,-11.889 1.503,-0.562 3.122,-0.969 4.398,-1.989 0.522,-0.41 1.033,-1.062 0.777,-1.765 -0.267,-0.615 -0.905,-0.956 -1.492,-1.21 -1.664,-0.659 -3.476,-0.787 -5.246,-0.836 -2.771,0.019 -5.567,0.361 -8.202,1.249 -7.919,2.775 -15.824,5.584 -23.745,8.35 0.001,-4.395 -0.002,-8.787 0.002,-13.181 5.731,-2.011 11.715,-3.23 17.741,-3.923 z" />
    </g>
  </g>
</svg>
