<?xml version="1.0" encoding="UTF-8" standalone="no"?>
<svg
   xmlns:dc="http://purl.org/dc/elements/1.1/"
   xmlns:cc="http://creativecommons.org/ns#"
   xmlns:rdf="http://www.w3.org/1999/02/22-rdf-syntax-ns#"
   xmlns:svg="http://www.w3.org/2000/svg"
   xmlns="http://www.w3.org/2000/svg"
   xmlns:sodipodi="http://sodipodi.sourceforge.net/DTD/sodipodi-0.dtd"
   xmlns:inkscape="http://www.inkscape.org/namespaces/inkscape"
   inkscape:version="1.0 (4035a4fb49, 2020-05-01)"
   sodipodi:docname="steam.svg"
   id="svg4"
   version="1.1"
   viewBox="0 0 24 24"
   height="482.97925pt"
   width="482.87949pt">
  <metadata
     id="metadata10">
    <rdf:RDF>
      <cc:Work
         rdf:about="">
        <dc:format>image/svg+xml</dc:format>
        <dc:type
           rdf:resource="http://purl.org/dc/dcmitype/StillImage" />
      </cc:Work>
    </rdf:RDF>
  </metadata>
  <defs
     id="defs8" />
  <sodipodi:namedview
     inkscape:current-layer="layer2"
     inkscape:window-maximized="1"
     inkscape:window-y="-9"
     inkscape:window-x="-9"
     inkscape:cy="316.88741"
     inkscape:cx="321.91966"
     inkscape:zoom="1.3075096"
     showgrid="false"
     id="namedview6"
     inkscape:window-height="1013"
     inkscape:window-width="1920"
     inkscape:pageshadow="2"
     inkscape:pageopacity="0"
     guidetolerance="10"
     gridtolerance="10"
     objecttolerance="10"
     borderopacity="1"
     bordercolor="#666666"
     pagecolor="#ffffff" />
  <g
     style="display:inline"
     inkscape:label="Layer 2"
     id="layer2"
     inkscape:groupmode="layer">
    <path
       style="fill:#ffffff"
       id="path2"
       d="M 9.406,17.183 C 9.837,16.158 9.356,14.977 8.33,14.546 L 6.568,13.805 c 0.331,-0.125 0.654,-0.182 0.982,-0.183 1.518,0 2.765,1.236 2.779,2.754 0.014,1.538 -1.217,2.792 -2.753,2.806 -1.159,0.005 -2.138,-0.684 -2.571,-1.665 l 1.763,0.741 c 1.027,0.432 2.207,-0.05 2.638,-1.075 z M 0,0 v 11.043 l 5.585,2.349 c 0.596,-0.39 1.283,-0.599 2.046,-0.583 L 10.648,8.588 C 10.696,6.047 12.77,4 15.322,4 17.905,4 20,6.094 20,8.677 c 0,2.581 -2.098,4.703 -4.732,4.675 l -4.115,3.067 -0.009,0.004 C 11.132,18.385 9.551,19.981 7.583,20 5.806,20.015 4.349,18.751 4.023,17.105 L 0,15.413 V 24 H 24 V 0 Z m 15.322,11.857 c -1.752,0 -3.179,-1.427 -3.179,-3.18 0,-1.753 1.427,-3.179 3.179,-3.179 1.753,0 3.179,1.426 3.179,3.179 0,1.753 -1.425,3.18 -3.179,3.18 z m 0,-0.779 c 1.325,0 2.401,-1.077 2.401,-2.401 0,-1.323 -1.076,-2.401 -2.401,-2.401 -1.324,0 -2.401,1.078 -2.401,2.401 0,1.324 1.078,2.401 2.401,2.401 z" />
  </g>
</svg>
